<?xml version="1.0" encoding="UTF-8" standalone="no"?>
<!DOCTYPE svg PUBLIC "-//W3C//DTD SVG 1.1//EN" "http://www.w3.org/Graphics/SVG/1.1/DTD/svg11.dtd">
<!-- Généré par Microsoft Visio, SVG Export MCD.svg Page-1 -->
<svg xmlns="http://www.w3.org/2000/svg" xmlns:xlink="http://www.w3.org/1999/xlink" xmlns:ev="http://www.w3.org/2001/xml-events"
		xmlns:v="http://schemas.microsoft.com/visio/2003/SVGExtensions/" width="11.6929in" height="8.26772in"
		viewBox="0 0 841.89 595.276" xml:space="preserve" color-interpolation-filters="sRGB" class="st14">
	<v:documentProperties v:langID="1036" v:metric="true" v:viewMarkup="false">
		<v:userDefs>
			<v:ud v:nameU="msvSubprocessMaster" v:prompt="" v:val="VT4(Rectangle)"/>
			<v:ud v:nameU="msvNoAutoConnect" v:val="VT0(1):26"/>
		</v:userDefs>
	</v:documentProperties>

	<style type="text/css">
	<![CDATA[
		.st1 {visibility:visible}
		.st2 {fill:#5b9bd5;fill-opacity:0.22;filter:url(#filter_2);stroke:#5b9bd5;stroke-opacity:0.22}
		.st3 {fill:#5b9bd5;stroke:#c7c8c8;stroke-width:0.25}
		.st4 {fill:#feffff;font-family:Calibri;font-size:0.833336em}
		.st5 {font-size:0.799995em}
		.st6 {stroke:#5b9bd5;stroke-linecap:round;stroke-linejoin:round;stroke-width:1}
		.st7 {fill:#ffffff;stroke:none;stroke-linecap:butt;stroke-width:7.2}
		.st8 {fill:#4f87bb;font-family:Calibri;font-size:0.666664em}
		.st9 {fill:none;stroke:none;stroke-width:0.25}
		.st10 {fill:#5b9bd5;font-family:Calibri;font-size:1.00001em;font-weight:bold}
		.st11 {fill:#5b9bd5;font-family:Calibri;font-size:1.00001em}
		.st12 {font-size:1em}
		.st13 {fill:#5b9bd5;font-family:Calibri;font-size:0.666664em}
		.st14 {fill:none;fill-rule:evenodd;font-size:12px;overflow:visible;stroke-linecap:square;stroke-miterlimit:3}
	]]>
	</style>

	<defs id="Filters">
		<filter id="filter_2">
			<feGaussianBlur stdDeviation="2"/>
		</filter>
	</defs>
	<g v:mID="0" v:index="1" v:groupContext="foregroundPage">
		<v:userDefs>
			<v:ud v:nameU="msvThemeOrder" v:val="VT0(0):26"/>
		</v:userDefs>
		<title>Page 1</title>
		<v:pageProperties v:drawingScale="0.0393701" v:pageScale="0.0393701" v:drawingUnits="24" v:shadowOffsetX="8.50394"
				v:shadowOffsetY="-8.50394"/>
		<v:layer v:name="Lien" v:index="0"/>
		<g id="shape2-1" v:mID="2" v:groupContext="shape" transform="translate(557.008,-277.657)">
			<title>Rectangle à coins arrondis.37</title>
			<desc>Users id: email</desc>
			<v:userDefs>
				<v:ud v:nameU="CTypeTopLeftSnip" v:prompt="" v:val="VT0(0):5"/>
				<v:ud v:nameU="CTypeTopRightSnip" v:prompt="" v:val="VT0(0):5"/>
				<v:ud v:nameU="CTypeBotLeftSnip" v:prompt="" v:val="VT0(0):5"/>
				<v:ud v:nameU="CTypeBotRightSnip" v:prompt="" v:val="VT0(0):5"/>
				<v:ud v:nameU="CornerLockHoriz" v:prompt="" v:val="VT0(0):5"/>
				<v:ud v:nameU="CornerLockVert" v:prompt="" v:val="VT0(0):5"/>
				<v:ud v:nameU="CornerLockDiag" v:prompt="" v:val="VT0(0):5"/>
				<v:ud v:nameU="TopLeftOffset" v:prompt="" v:val="VT0(0.15748031496063):24"/>
				<v:ud v:nameU="TopRightOffset" v:prompt="" v:val="VT0(0.15748031496063):24"/>
				<v:ud v:nameU="BotLeftOffset" v:prompt="" v:val="VT0(0.15748031496063):24"/>
				<v:ud v:nameU="BotRightOffset" v:prompt="" v:val="VT0(0.15748031496063):24"/>
				<v:ud v:nameU="visVersion" v:prompt="" v:val="VT0(15):26"/>
				<v:ud v:nameU="TopLeftOffset" v:prompt="" v:val="VT0(0.11417322834646):1"/>
				<v:ud v:nameU="TopRightOffset" v:prompt="" v:val="VT0(0.11417322834646):1"/>
				<v:ud v:nameU="BotLeftOffset" v:prompt="" v:val="VT0(0.11417322834646):1"/>
				<v:ud v:nameU="BotRightOffset" v:prompt="" v:val="VT0(0.11417322834646):1"/>
			</v:userDefs>
			<v:textBlock v:margins="rect(4,4,4,4)" v:tabSpace="42.5197"/>
			<v:textRect cx="41.1024" cy="575.295" width="82.21" height="39.9606"/>
			<g id="shadow2-2" v:groupContext="shadow" v:shadowOffsetX="0.345598" v:shadowOffsetY="-1.97279" v:shadowType="1"
					transform="matrix(1,0,0,1,0.345598,1.97279)" class="st1">
				<path d="M8.22 595.28 L73.98 595.28 A8.22034 8.22034 -180 0 0 82.2 587.06 L82.2 563.54 A8.22034 8.22034 -180 0 0
							 73.98 555.31 L8.22 555.31 A8.22034 8.22034 -180 0 0 0 563.54 L0 587.06 A8.22034 8.22034 -180 0 0 8.22
							 595.28 Z" class="st2"/>
			</g>
			<path d="M8.22 595.28 L73.98 595.28 A8.22034 8.22034 -180 0 0 82.2 587.06 L82.2 563.54 A8.22034 8.22034 -180 0 0 73.98
						 555.31 L8.22 555.31 A8.22034 8.22034 -180 0 0 0 563.54 L0 587.06 A8.22034 8.22034 -180 0 0 8.22 595.28 Z"
					class="st3"/>
			<text x="29.75" y="572.3" class="st4" v:langID="4108"><v:paragraph v:horizAlign="1"/><v:tabList/>Users<v:newlineChar/><tspan
						x="27.17" dy="1.5em" class="st5">id</tspan><tspan class="st5">: </tspan><tspan class="st5">email</tspan></text>		</g>
		<g id="shape42-10" v:mID="42" v:groupContext="shape" transform="translate(144.567,-277.657)">
			<title>Rectangle à coins arrondis.37.42</title>
			<desc>Groups id: nom du groupe, membres</desc>
			<v:userDefs>
				<v:ud v:nameU="CTypeTopLeftSnip" v:prompt="" v:val="VT0(0):5"/>
				<v:ud v:nameU="CTypeTopRightSnip" v:prompt="" v:val="VT0(0):5"/>
				<v:ud v:nameU="CTypeBotLeftSnip" v:prompt="" v:val="VT0(0):5"/>
				<v:ud v:nameU="CTypeBotRightSnip" v:prompt="" v:val="VT0(0):5"/>
				<v:ud v:nameU="CornerLockHoriz" v:prompt="" v:val="VT0(0):5"/>
				<v:ud v:nameU="CornerLockVert" v:prompt="" v:val="VT0(0):5"/>
				<v:ud v:nameU="CornerLockDiag" v:prompt="" v:val="VT0(0):5"/>
				<v:ud v:nameU="TopLeftOffset" v:prompt="" v:val="VT0(0.15748031496063):24"/>
				<v:ud v:nameU="TopRightOffset" v:prompt="" v:val="VT0(0.15748031496063):24"/>
				<v:ud v:nameU="BotLeftOffset" v:prompt="" v:val="VT0(0.15748031496063):24"/>
				<v:ud v:nameU="BotRightOffset" v:prompt="" v:val="VT0(0.15748031496063):24"/>
				<v:ud v:nameU="visVersion" v:prompt="" v:val="VT0(15):26"/>
				<v:ud v:nameU="TopLeftOffset" v:prompt="" v:val="VT0(0.11417322834646):24"/>
				<v:ud v:nameU="TopRightOffset" v:prompt="" v:val="VT0(0.11417322834646):24"/>
				<v:ud v:nameU="BotLeftOffset" v:prompt="" v:val="VT0(0.11417322834646):24"/>
				<v:ud v:nameU="BotRightOffset" v:prompt="" v:val="VT0(0.11417322834646):24"/>
			</v:userDefs>
			<v:textBlock v:margins="rect(4,4,4,4)" v:tabSpace="42.5197"/>
			<v:textRect cx="41.1024" cy="575.295" width="82.21" height="39.9606"/>
			<g id="shadow42-11" v:groupContext="shadow" v:shadowOffsetX="0.345598" v:shadowOffsetY="-1.97279" v:shadowType="1"
					transform="matrix(1,0,0,1,0.345598,1.97279)" class="st1">
				<path d="M8.22 595.28 L73.98 595.28 A8.22034 8.22034 -180 0 0 82.2 587.06 L82.2 563.54 A8.22034 8.22034 -180 0 0
							 73.98 555.31 L8.22 555.31 A8.22034 8.22034 -180 0 0 0 563.54 L0 587.06 A8.22034 8.22034 -180 0 0 8.22
							 595.28 Z" class="st2"/>
			</g>
			<path d="M8.22 595.28 L73.98 595.28 A8.22034 8.22034 -180 0 0 82.2 587.06 L82.2 563.54 A8.22034 8.22034 -180 0 0 73.98
						 555.31 L8.22 555.31 A8.22034 8.22034 -180 0 0 0 563.54 L0 587.06 A8.22034 8.22034 -180 0 0 8.22 595.28 Z"
					class="st3"/>
			<text x="26.36" y="567.5" class="st4" v:langID="4108"><v:paragraph v:horizAlign="1"/><v:tabList/>Groups<v:newlineChar/><tspan
						x="10.11" dy="1.275em" class="st5">id</tspan><tspan class="st5">: </tspan><tspan class="st5">nom du groupe</tspan><tspan
						class="st5">, </tspan><tspan x="25.67" dy="1.425em" class="st5">membres</tspan></text>		</g>
		<g id="shape4-21" v:mID="4" v:groupContext="shape" transform="translate(344.409,-141.732)">
			<title>Rectangle à coins arrondis.4</title>
			<desc>Messages id: timestamp d’envoi, groupe, utilisateur</desc>
			<v:userDefs>
				<v:ud v:nameU="CTypeTopLeftSnip" v:prompt="" v:val="VT0(0):5"/>
				<v:ud v:nameU="CTypeTopRightSnip" v:prompt="" v:val="VT0(0):5"/>
				<v:ud v:nameU="CTypeBotLeftSnip" v:prompt="" v:val="VT0(0):5"/>
				<v:ud v:nameU="CTypeBotRightSnip" v:prompt="" v:val="VT0(0):5"/>
				<v:ud v:nameU="CornerLockHoriz" v:prompt="" v:val="VT0(0):5"/>
				<v:ud v:nameU="CornerLockVert" v:prompt="" v:val="VT0(0):5"/>
				<v:ud v:nameU="CornerLockDiag" v:prompt="" v:val="VT0(0):5"/>
				<v:ud v:nameU="TopLeftOffset" v:prompt="" v:val="VT0(0.15748031496063):24"/>
				<v:ud v:nameU="TopRightOffset" v:prompt="" v:val="VT0(0.15748031496063):24"/>
				<v:ud v:nameU="BotLeftOffset" v:prompt="" v:val="VT0(0.15748031496063):24"/>
				<v:ud v:nameU="BotRightOffset" v:prompt="" v:val="VT0(0.15748031496063):24"/>
				<v:ud v:nameU="visVersion" v:prompt="" v:val="VT0(15):26"/>
				<v:ud v:nameU="TopLeftOffset" v:prompt="" v:val="VT0(0.11417322834646):1"/>
				<v:ud v:nameU="TopRightOffset" v:prompt="" v:val="VT0(0.11417322834646):1"/>
				<v:ud v:nameU="BotLeftOffset" v:prompt="" v:val="VT0(0.11417322834646):1"/>
				<v:ud v:nameU="BotRightOffset" v:prompt="" v:val="VT0(0.11417322834646):1"/>
			</v:userDefs>
			<v:textBlock v:margins="rect(4,4,4,4)" v:tabSpace="42.5197"/>
			<v:textRect cx="41.1024" cy="575.295" width="82.21" height="39.9606"/>
			<g id="shadow4-22" v:groupContext="shadow" v:shadowOffsetX="0.345598" v:shadowOffsetY="-1.97279" v:shadowType="1"
					transform="matrix(1,0,0,1,0.345598,1.97279)" class="st1">
				<path d="M8.22 595.28 L73.98 595.28 A8.22034 8.22034 -180 0 0 82.2 587.06 L82.2 563.54 A8.22034 8.22034 -180 0 0
							 73.98 555.31 L8.22 555.31 A8.22034 8.22034 -180 0 0 0 563.54 L0 587.06 A8.22034 8.22034 -180 0 0 8.22
							 595.28 Z" class="st2"/>
			</g>
			<path d="M8.22 595.28 L73.98 595.28 A8.22034 8.22034 -180 0 0 82.2 587.06 L82.2 563.54 A8.22034 8.22034 -180 0 0 73.98
						 555.31 L8.22 555.31 A8.22034 8.22034 -180 0 0 0 563.54 L0 587.06 A8.22034 8.22034 -180 0 0 8.22 595.28 Z"
					class="st3"/>
			<text x="21.24" y="568.7" class="st4" v:langID="4108"><v:paragraph v:horizAlign="1"/><v:tabList/>Messages<v:newlineChar/><tspan
						x="4.62" dy="1.275em" class="st5">id</tspan><tspan class="st5">: </tspan><tspan class="st5">timestamp d</tspan><tspan
						class="st5">’</tspan><tspan class="st5">envoi</tspan><tspan class="st5">, </tspan><tspan x="11.12"
						dy="1.2em" class="st5">groupe</tspan><tspan class="st5">, </tspan><tspan class="st5">utilisateur</tspan></text>		</g>
		<g id="shape6-36" v:mID="6" v:groupContext="shape" transform="translate(344.409,-413.583)">
			<title>Rectangle à coins arrondis.6</title>
			<desc>Files id: nom du fichier</desc>
			<v:userDefs>
				<v:ud v:nameU="CTypeTopLeftSnip" v:prompt="" v:val="VT0(0):5"/>
				<v:ud v:nameU="CTypeTopRightSnip" v:prompt="" v:val="VT0(0):5"/>
				<v:ud v:nameU="CTypeBotLeftSnip" v:prompt="" v:val="VT0(0):5"/>
				<v:ud v:nameU="CTypeBotRightSnip" v:prompt="" v:val="VT0(0):5"/>
				<v:ud v:nameU="CornerLockHoriz" v:prompt="" v:val="VT0(0):5"/>
				<v:ud v:nameU="CornerLockVert" v:prompt="" v:val="VT0(0):5"/>
				<v:ud v:nameU="CornerLockDiag" v:prompt="" v:val="VT0(0):5"/>
				<v:ud v:nameU="TopLeftOffset" v:prompt="" v:val="VT0(0.15748031496063):24"/>
				<v:ud v:nameU="TopRightOffset" v:prompt="" v:val="VT0(0.15748031496063):24"/>
				<v:ud v:nameU="BotLeftOffset" v:prompt="" v:val="VT0(0.15748031496063):24"/>
				<v:ud v:nameU="BotRightOffset" v:prompt="" v:val="VT0(0.15748031496063):24"/>
				<v:ud v:nameU="visVersion" v:prompt="" v:val="VT0(15):26"/>
				<v:ud v:nameU="TopLeftOffset" v:prompt="" v:val="VT0(0.11417322834646):1"/>
				<v:ud v:nameU="TopRightOffset" v:prompt="" v:val="VT0(0.11417322834646):1"/>
				<v:ud v:nameU="BotLeftOffset" v:prompt="" v:val="VT0(0.11417322834646):1"/>
				<v:ud v:nameU="BotRightOffset" v:prompt="" v:val="VT0(0.11417322834646):1"/>
			</v:userDefs>
			<v:textBlock v:margins="rect(4,4,4,4)" v:tabSpace="42.5197"/>
			<v:textRect cx="41.1024" cy="575.295" width="82.21" height="39.9606"/>
			<g id="shadow6-37" v:groupContext="shadow" v:shadowOffsetX="0.345598" v:shadowOffsetY="-1.97279" v:shadowType="1"
					transform="matrix(1,0,0,1,0.345598,1.97279)" class="st1">
				<path d="M8.22 595.28 L73.98 595.28 A8.22034 8.22034 -180 0 0 82.2 587.06 L82.2 563.54 A8.22034 8.22034 -180 0 0
							 73.98 555.31 L8.22 555.31 A8.22034 8.22034 -180 0 0 0 563.54 L0 587.06 A8.22034 8.22034 -180 0 0 8.22
							 595.28 Z" class="st2"/>
			</g>
			<path d="M8.22 595.28 L73.98 595.28 A8.22034 8.22034 -180 0 0 82.2 587.06 L82.2 563.54 A8.22034 8.22034 -180 0 0 73.98
						 555.31 L8.22 555.31 A8.22034 8.22034 -180 0 0 0 563.54 L0 587.06 A8.22034 8.22034 -180 0 0 8.22 595.28 Z"
					class="st3"/>
			<text x="32.07" y="573.5" class="st4" v:langID="4108"><v:paragraph v:horizAlign="1"/><v:tabList/>Files<v:newlineChar/><tspan
						x="12.46" dy="1.275em" class="st5">id</tspan><tspan class="st5">: </tspan><tspan class="st5">nom du fichier</tspan></text>		</g>
		<g id="shape11-45" v:mID="11" v:groupContext="shape" v:layerMember="0" transform="translate(185.669,-317.618)">
			<title>Lien dynamique</title>
			<path d="M0 595.28 L0 490.67 A11.3386 11.3386 0 0 1 11.34 479.33 L158.74 479.33" class="st6"/>
		</g>
		<g id="shape13-48" v:mID="13" v:groupContext="shape" v:layerMember="0" transform="translate(426.614,-433.563)">
			<title>Lien dynamique.13</title>
			<desc>&#60;- &#60;-</desc>
			<v:textBlock v:margins="rect(4,4,4,4)" v:tabSpace="42.5197"/>
			<v:textRect cx="143.72" cy="595.276" width="40" height="17.6036"/>
			<path d="M0 595.28 L160.16 595.28 A11.3386 11.3386 0 0 1 171.5 606.61 L171.5 711.22" class="st6"/>
			<rect v:rectContext="textBkgnd" x="135.478" y="590.476" width="16.4844" height="9.59985" class="st7"/>
			<text x="135.48" y="597.68" class="st8" v:langID="4108"><v:paragraph v:horizAlign="1"/><v:tabList/>&#60;-  &#60;-</text>		</g>
		<g id="shape14-53" v:mID="14" v:groupContext="shape" v:layerMember="0" transform="translate(598.11,-277.657)">
			<title>Lien dynamique.14</title>
			<path d="M0 595.28 L0 699.88 A11.3386 11.3386 0 0 1 -11.34 711.22 L-171.5 711.22" class="st6"/>
		</g>
		<g id="shape15-56" v:mID="15" v:groupContext="shape" v:layerMember="0" transform="translate(185.669,-277.657)">
			<title>Lien dynamique.15</title>
			<path d="M0 595.28 L0 699.88 A11.3386 11.3386 -180 0 0 11.34 711.22 L158.74 711.22" class="st6"/>
		</g>
		<g id="shape16-59" v:mID="16" v:groupContext="shape" v:layerMember="0" transform="translate(226.772,-304.724)">
			<title>Lien dynamique.16</title>
			<path d="M0 602.36 L156.38 602.36 A2.3622 2.3622 0 0 1 161.1 602.36 L330.24 602.36" class="st6"/>
		</g>
		<g id="shape17-62" v:mID="17" v:groupContext="shape" v:layerMember="0" transform="translate(378.425,-181.693)">
			<title>Lien dynamique.17</title>
			<path d="M7.09 595.28 L7.09 363.39" class="st6"/>
		</g>
		<g id="shape18-65" v:mID="18" v:groupContext="shape" transform="translate(313.48,-423.563)">
			<title>Feuille.18</title>
			<desc>1</desc>
			<v:textBlock v:margins="rect(4,4,4,4)" v:tabSpace="42.5197"/>
			<v:textRect cx="11.9213" cy="585.276" width="23.85" height="20"/>
			<rect x="0" y="575.276" width="23.8425" height="20" class="st9"/>
			<text x="8.88" y="588.88" class="st10" v:langID="4108"><v:paragraph v:horizAlign="1"/><v:tabList/>1</text>		</g>
		<g id="shape19-68" v:mID="19" v:groupContext="shape" transform="translate(173.748,-320.157)">
			<title>Feuille.19</title>
			<desc>1</desc>
			<v:textBlock v:margins="rect(4,4,4,4)" v:tabSpace="42.5197"/>
			<v:textRect cx="11.9213" cy="585.276" width="23.85" height="20"/>
			<rect x="0" y="575.276" width="23.8425" height="20" class="st9"/>
			<text x="8.88" y="588.88" class="st10" v:langID="4108"><v:paragraph v:horizAlign="1"/><v:tabList/>1</text>		</g>
		<g id="shape20-71" v:mID="20" v:groupContext="shape" transform="translate(229.606,-297.618)">
			<title>Feuille.20</title>
			<desc>n</desc>
			<v:textBlock v:margins="rect(4,4,4,4)" v:tabSpace="42.5197"/>
			<v:textRect cx="11.9213" cy="585.276" width="23.85" height="20"/>
			<rect x="0" y="575.276" width="23.8425" height="20" class="st9"/>
			<text x="8.7" y="588.88" class="st10" v:langID="4108"><v:paragraph v:horizAlign="1"/><v:tabList/>n</text>		</g>
		<g id="shape21-74" v:mID="21" v:groupContext="shape" transform="translate(535.165,-297.618)">
			<title>Feuille.21</title>
			<desc>n</desc>
			<v:textBlock v:margins="rect(4,4,4,4)" v:tabSpace="42.5197"/>
			<v:textRect cx="11.9213" cy="585.276" width="23.85" height="20"/>
			<rect x="0" y="575.276" width="23.8425" height="20" class="st9"/>
			<text x="8.7" y="588.88" class="st10" v:langID="4108"><v:paragraph v:horizAlign="1"/><v:tabList/>n</text>		</g>
		<g id="shape22-77" v:mID="22" v:groupContext="shape" transform="translate(166.079,-255.118)">
			<title>Feuille.22</title>
			<desc>1</desc>
			<v:textBlock v:margins="rect(4,4,4,4)" v:tabSpace="42.5197"/>
			<v:textRect cx="11.9213" cy="585.276" width="23.85" height="20"/>
			<rect x="0" y="575.276" width="23.8425" height="20" class="st9"/>
			<text x="8.88" y="588.88" class="st10" v:langID="4108"><v:paragraph v:horizAlign="1"/><v:tabList/>1</text>		</g>
		<g id="shape23-80" v:mID="23" v:groupContext="shape" transform="translate(320.315,-141.732)">
			<title>Feuille.23</title>
			<desc>n</desc>
			<v:textBlock v:margins="rect(4,4,4,4)" v:tabSpace="42.5197"/>
			<v:textRect cx="11.9213" cy="585.276" width="23.85" height="20"/>
			<rect x="0" y="575.276" width="23.8425" height="20" class="st9"/>
			<text x="8.7" y="588.88" class="st10" v:langID="4108"><v:paragraph v:horizAlign="1"/><v:tabList/>n</text>		</g>
		<g id="shape24-83" v:mID="24" v:groupContext="shape" transform="translate(581.354,-256.457)">
			<title>Feuille.24</title>
			<desc>1</desc>
			<v:textBlock v:margins="rect(4,4,4,4)" v:tabSpace="42.5197"/>
			<v:textRect cx="11.9213" cy="585.276" width="23.85" height="20"/>
			<rect x="0" y="575.276" width="23.8425" height="20" class="st9"/>
			<text x="8.88" y="588.88" class="st10" v:langID="4108"><v:paragraph v:horizAlign="1"/><v:tabList/>1</text>		</g>
		<g id="shape25-86" v:mID="25" v:groupContext="shape" transform="translate(426.866,-141.732)">
			<title>Feuille.25</title>
			<desc>n</desc>
			<v:textBlock v:margins="rect(4,4,4,4)" v:tabSpace="42.5197"/>
			<v:textRect cx="11.9213" cy="585.276" width="23.85" height="20"/>
			<rect x="0" y="575.276" width="23.8425" height="20" class="st9"/>
			<text x="8.7" y="588.88" class="st10" v:langID="4108"><v:paragraph v:horizAlign="1"/><v:tabList/>n</text>		</g>
		<g id="shape26-89" v:mID="26" v:groupContext="shape" transform="translate(388.346,-392.52)">
			<title>Feuille.26</title>
			<desc>1</desc>
			<v:textBlock v:margins="rect(4,4,4,4)" v:tabSpace="42.5197"/>
			<v:textRect cx="11.9213" cy="585.276" width="23.85" height="20"/>
			<rect x="0" y="575.276" width="23.8425" height="20" class="st9"/>
			<text x="8.88" y="588.88" class="st10" v:langID="4108"><v:paragraph v:horizAlign="1"/><v:tabList/>1</text>		</g>
		<g id="shape28-92" v:mID="28" v:groupContext="shape" transform="translate(387.764,-182.992)">
			<title>Feuille.28</title>
			<desc>1</desc>
			<v:textBlock v:margins="rect(4,4,4,4)" v:tabSpace="42.5197"/>
			<v:textRect cx="11.9213" cy="585.276" width="23.85" height="20"/>
			<rect x="0" y="575.276" width="23.8425" height="20" class="st9"/>
			<text x="8.88" y="588.88" class="st10" v:langID="4108"><v:paragraph v:horizAlign="1"/><v:tabList/>1</text>		</g>
		<g id="shape29-95" v:mID="29" v:groupContext="shape" transform="translate(433.701,-423.563)">
			<title>Feuille.29</title>
			<desc>1</desc>
			<v:textBlock v:margins="rect(4,4,4,4)" v:tabSpace="42.5197"/>
			<v:textRect cx="11.9213" cy="585.276" width="23.85" height="20"/>
			<rect x="0" y="575.276" width="23.8425" height="20" class="st9"/>
			<text x="8.88" y="588.88" class="st10" v:langID="4108"><v:paragraph v:horizAlign="1"/><v:tabList/>1</text>		</g>
		<g id="shape30-98" v:mID="30" v:groupContext="shape" transform="translate(596.945,-318.819)">
			<title>Feuille.30</title>
			<desc>1</desc>
			<v:textBlock v:margins="rect(4,4,4,4)" v:tabSpace="42.5197"/>
			<v:textRect cx="11.9213" cy="585.276" width="23.85" height="20"/>
			<rect x="0" y="575.276" width="23.8425" height="20" class="st9"/>
			<text x="8.88" y="588.88" class="st10" v:langID="4108"><v:paragraph v:horizAlign="1"/><v:tabList/>1</text>		</g>
		<g id="shape31-101" v:mID="31" v:groupContext="shape" transform="translate(18,-537.315)">
			<title>Feuille.31</title>
			<desc>Author: Nicolas Maitre Version: 03.04.2019 Title: MVC messagi...</desc>
			<v:textBlock v:margins="rect(4,4,4,4)" v:tabSpace="42.5197"/>
			<v:textRect cx="84.5433" cy="575.295" width="169.09" height="39.9606"/>
			<rect x="0" y="555.315" width="169.087" height="39.9606" class="st9"/>
			<text x="4" y="564.5" class="st11" v:langID="4108"><v:paragraph/><v:tabList/>Author: Nicolas Maitre<v:newlineChar/><tspan
						x="4" dy="1.2em" class="st12">Version</tspan>: 03.04.2019<v:newlineChar/><tspan x="4" dy="1.2em"
						class="st12">Title</tspan>: MVC messaging web app</text>		</g>
		<g id="shape32-106" v:mID="32" v:groupContext="shape" transform="translate(716.173,-388.209)">
			<title>Rectangle à coins arrondis.32</title>
			<desc>Tokens id: token</desc>
			<v:userDefs>
				<v:ud v:nameU="CTypeTopLeftSnip" v:prompt="" v:val="VT0(0):5"/>
				<v:ud v:nameU="CTypeTopRightSnip" v:prompt="" v:val="VT0(0):5"/>
				<v:ud v:nameU="CTypeBotLeftSnip" v:prompt="" v:val="VT0(0):5"/>
				<v:ud v:nameU="CTypeBotRightSnip" v:prompt="" v:val="VT0(0):5"/>
				<v:ud v:nameU="CornerLockHoriz" v:prompt="" v:val="VT0(0):5"/>
				<v:ud v:nameU="CornerLockVert" v:prompt="" v:val="VT0(0):5"/>
				<v:ud v:nameU="CornerLockDiag" v:prompt="" v:val="VT0(0):5"/>
				<v:ud v:nameU="TopLeftOffset" v:prompt="" v:val="VT0(0.15748031496063):24"/>
				<v:ud v:nameU="TopRightOffset" v:prompt="" v:val="VT0(0.15748031496063):24"/>
				<v:ud v:nameU="BotLeftOffset" v:prompt="" v:val="VT0(0.15748031496063):24"/>
				<v:ud v:nameU="BotRightOffset" v:prompt="" v:val="VT0(0.15748031496063):24"/>
				<v:ud v:nameU="visVersion" v:prompt="" v:val="VT0(15):26"/>
				<v:ud v:nameU="TopLeftOffset" v:prompt="" v:val="VT0(0.11417322834646):1"/>
				<v:ud v:nameU="TopRightOffset" v:prompt="" v:val="VT0(0.11417322834646):1"/>
				<v:ud v:nameU="BotLeftOffset" v:prompt="" v:val="VT0(0.11417322834646):1"/>
				<v:ud v:nameU="BotRightOffset" v:prompt="" v:val="VT0(0.11417322834646):1"/>
			</v:userDefs>
			<v:textBlock v:margins="rect(4,4,4,4)" v:tabSpace="42.5197"/>
			<v:textRect cx="41.1024" cy="575.295" width="82.21" height="39.9606"/>
			<g id="shadow32-107" v:groupContext="shadow" v:shadowOffsetX="0.345598" v:shadowOffsetY="-1.97279" v:shadowType="1"
					transform="matrix(1,0,0,1,0.345598,1.97279)" class="st1">
				<path d="M8.22 595.28 L73.98 595.28 A8.22034 8.22034 -180 0 0 82.2 587.06 L82.2 563.54 A8.22034 8.22034 -180 0 0
							 73.98 555.31 L8.22 555.31 A8.22034 8.22034 -180 0 0 0 563.54 L0 587.06 A8.22034 8.22034 -180 0 0 8.22
							 595.28 Z" class="st2"/>
			</g>
			<path d="M8.22 595.28 L73.98 595.28 A8.22034 8.22034 -180 0 0 82.2 587.06 L82.2 563.54 A8.22034 8.22034 -180 0 0 73.98
						 555.31 L8.22 555.31 A8.22034 8.22034 -180 0 0 0 563.54 L0 587.06 A8.22034 8.22034 -180 0 0 8.22 595.28 Z"
					class="st3"/>
			<text x="26.69" y="572.3" class="st4" v:langID="4108"><v:paragraph v:horizAlign="1"/><v:tabList/>Tokens<v:newlineChar/><tspan
						x="26.75" dy="1.5em" class="st5">id</tspan><tspan class="st5">: </tspan><tspan class="st5">token</tspan></text>		</g>
		<g id="shape34-115" v:mID="34" v:groupContext="shape" v:layerMember="0" transform="translate(639.213,-297.638)">
			<title>Lien dynamique.34</title>
			<desc>-&#62; Possède des -&#62; &#60;- Appartiennent à un &#60;-</desc>
			<v:textBlock v:margins="rect(4,4,4,4)" v:tabSpace="42.5197"/>
			<v:textRect cx="59.0315" cy="549.99" width="89.58" height="27.2035"/>
			<path d="M0 595.28 L118.06 504.7" class="st6"/>
			<rect v:rectContext="textBkgnd" x="19.1511" y="540.39" width="79.761" height="19.1997" class="st7"/>
			<text x="30.84" y="547.59" class="st8" v:langID="4108"><v:paragraph v:horizAlign="1"/><v:tabList/>-&#62; Possède des -&#62;<v:newlineChar/><tspan
						x="19.15" dy="1.2em" class="st12">&#60;</tspan>- Appartiennent à un &#60;-</text>		</g>
		<g id="shape35-121" v:mID="35" v:groupContext="shape" transform="translate(636.63,-306.142)">
			<title>Feuille.35</title>
			<desc>1</desc>
			<v:textBlock v:margins="rect(4,4,4,4)" v:tabSpace="42.5197"/>
			<v:textRect cx="11.9213" cy="585.276" width="23.85" height="20"/>
			<rect x="0" y="575.276" width="23.8425" height="20" class="st9"/>
			<text x="8.88" y="588.88" class="st10" v:langID="4108"><v:paragraph v:horizAlign="1"/><v:tabList/>1</text>		</g>
		<g id="shape36-124" v:mID="36" v:groupContext="shape" transform="translate(756.85,-368.504)">
			<title>Feuille.36</title>
			<desc>n</desc>
			<v:textBlock v:margins="rect(4,4,4,4)" v:tabSpace="42.5197"/>
			<v:textRect cx="11.9213" cy="585.276" width="23.85" height="20"/>
			<rect x="0" y="575.276" width="23.8425" height="20" class="st9"/>
			<text x="8.7" y="588.88" class="st10" v:langID="4108"><v:paragraph v:horizAlign="1"/><v:tabList/>n</text>		</g>
		<g id="shape37-127" v:mID="37" v:groupContext="shape" transform="translate(716.173,-167.106)">
			<title>Round Corner Rectangle.37</title>
			<desc>Friends id: user1, user2</desc>
			<v:userDefs>
				<v:ud v:nameU="CTypeTopLeftSnip" v:prompt="" v:val="VT0(0):5"/>
				<v:ud v:nameU="CTypeTopRightSnip" v:prompt="" v:val="VT0(0):5"/>
				<v:ud v:nameU="CTypeBotLeftSnip" v:prompt="" v:val="VT0(0):5"/>
				<v:ud v:nameU="CTypeBotRightSnip" v:prompt="" v:val="VT0(0):5"/>
				<v:ud v:nameU="CornerLockHoriz" v:prompt="" v:val="VT0(0):5"/>
				<v:ud v:nameU="CornerLockVert" v:prompt="" v:val="VT0(0):5"/>
				<v:ud v:nameU="CornerLockDiag" v:prompt="" v:val="VT0(0):5"/>
				<v:ud v:nameU="TopLeftOffset" v:prompt="" v:val="VT0(0.15748031496063):24"/>
				<v:ud v:nameU="TopRightOffset" v:prompt="" v:val="VT0(0.15748031496063):24"/>
				<v:ud v:nameU="BotLeftOffset" v:prompt="" v:val="VT0(0.15748031496063):24"/>
				<v:ud v:nameU="BotRightOffset" v:prompt="" v:val="VT0(0.15748031496063):24"/>
				<v:ud v:nameU="visVersion" v:prompt="" v:val="VT0(15):26"/>
				<v:ud v:nameU="TopLeftOffset" v:prompt="" v:val="VT0(0.11417322834646):1"/>
				<v:ud v:nameU="TopRightOffset" v:prompt="" v:val="VT0(0.11417322834646):1"/>
				<v:ud v:nameU="BotLeftOffset" v:prompt="" v:val="VT0(0.11417322834646):1"/>
				<v:ud v:nameU="BotRightOffset" v:prompt="" v:val="VT0(0.11417322834646):1"/>
			</v:userDefs>
			<v:textBlock v:margins="rect(4,4,4,4)" v:tabSpace="42.5197"/>
			<v:textRect cx="41.1024" cy="575.295" width="82.21" height="39.9606"/>
			<g id="shadow37-128" v:groupContext="shadow" v:shadowOffsetX="0.345598" v:shadowOffsetY="-1.97279" v:shadowType="1"
					transform="matrix(1,0,0,1,0.345598,1.97279)" class="st1">
				<path d="M8.22 595.28 L73.98 595.28 A8.22034 8.22034 -180 0 0 82.2 587.06 L82.2 563.54 A8.22034 8.22034 -180 0 0
							 73.98 555.31 L8.22 555.31 A8.22034 8.22034 -180 0 0 0 563.54 L0 587.06 A8.22034 8.22034 -180 0 0 8.22
							 595.28 Z" class="st2"/>
			</g>
			<path d="M8.22 595.28 L73.98 595.28 A8.22034 8.22034 -180 0 0 82.2 587.06 L82.2 563.54 A8.22034 8.22034 -180 0 0 73.98
						 555.31 L8.22 555.31 A8.22034 8.22034 -180 0 0 0 563.54 L0 587.06 A8.22034 8.22034 -180 0 0 8.22 595.28 Z"
					class="st3"/>
			<text x="26.22" y="572.3" class="st4" v:langID="4108"><v:paragraph v:horizAlign="1"/><v:tabList/>Friends<v:newlineChar/><tspan
						x="16.05" dy="1.5em" class="st5">id</tspan><tspan class="st5">: </tspan><tspan class="st5">user</tspan><tspan
						class="st5">1</tspan><tspan class="st5">, </tspan><tspan class="st5">user</tspan><tspan class="st5">2</tspan></text>		</g>
		<g id="shape38-140" v:mID="38" v:groupContext="shape" v:layerMember="0" transform="translate(639.213,-297.638)">
			<title>Lien dynamique.38</title>
			<desc>-&#62; Possède des -&#62;</desc>
			<v:textBlock v:margins="rect(4,4,4,4)" v:tabSpace="42.5197"/>
			<v:textRect cx="59.0315" cy="640.561" width="66.2" height="17.6036"/>
			<path d="M0 595.28 L118.06 685.85" class="st6"/>
			<rect v:rectContext="textBkgnd" x="30.8423" y="635.761" width="56.3785" height="9.59985" class="st7"/>
			<text x="30.84" y="642.96" class="st8" v:langID="4108"><v:paragraph v:horizAlign="1"/><v:tabList/>-&#62; Possède des -&#62;</text>		</g>
		<g id="shape39-145" v:mID="39" v:groupContext="shape" transform="translate(756.85,-205.433)">
			<title>Feuille.39</title>
			<desc>n</desc>
			<v:textBlock v:margins="rect(4,4,4,4)" v:tabSpace="42.5197"/>
			<v:textRect cx="11.9213" cy="585.276" width="23.85" height="20"/>
			<rect x="0" y="575.276" width="23.8425" height="20" class="st9"/>
			<text x="8.7" y="588.88" class="st10" v:langID="4108"><v:paragraph v:horizAlign="1"/><v:tabList/>n</text>		</g>
		<g id="shape41-148" v:mID="41" v:groupContext="shape" transform="translate(637.213,-266.457)">
			<title>Feuille.41</title>
			<desc>1</desc>
			<v:textBlock v:margins="rect(4,4,4,4)" v:tabSpace="42.5197"/>
			<v:textRect cx="11.9213" cy="585.276" width="23.85" height="20"/>
			<rect x="0" y="575.276" width="23.8425" height="20" class="st9"/>
			<text x="8.88" y="588.88" class="st10" v:langID="4108"><v:paragraph v:horizAlign="1"/><v:tabList/>1</text>		</g>
		<g id="shape43-151" v:mID="43" v:groupContext="shape" transform="translate(269.291,-294.803)">
			<title>Feuille.43</title>
			<desc>-&#62; Contient des -&#62;</desc>
			<v:textBlock v:margins="rect(4,4,4,4)" v:tabSpace="42.5197"/>
			<v:textRect cx="35.1654" cy="585.276" width="70.34" height="20"/>
			<rect x="0" y="575.276" width="70.3307" height="20" class="st9"/>
			<text x="6.33" y="588.88" class="st13" v:langID="4108"><v:paragraph v:horizAlign="1"/><v:tabList/>-&#62; Contient des -&#62;</text>		</g>
		<g id="shape45-154" v:mID="45" v:groupContext="shape" transform="translate(416.693,-296.142)">
			<title>Feuille.45</title>
			<desc>&#60;- Fait partie d’un &#60;-</desc>
			<v:textBlock v:margins="rect(4,4,4,4)" v:tabSpace="42.5197"/>
			<v:textRect cx="76" cy="585.276" width="152" height="20"/>
			<rect x="0" y="575.276" width="152" height="20" class="st9"/>
			<text x="42.97" y="588.88" class="st13" v:langID="4108"><v:paragraph v:horizAlign="1"/><v:tabList/>&#60;- Fait partie d’un &#60;-</text>		</g>
		<g id="shape47-157" v:mID="47" v:groupContext="shape" transform="translate(115.071,-232.579)">
			<title>Feuille.47</title>
			<desc>-&#62; Contient des -&#62;</desc>
			<v:textBlock v:margins="rect(4,4,4,4)" v:tabSpace="42.5197"/>
			<v:textRect cx="35.1654" cy="585.276" width="70.34" height="20"/>
			<rect x="0" y="575.276" width="70.3307" height="20" class="st9"/>
			<text x="8.66" y="588.88" class="st13" v:langID="4108"><v:paragraph v:horizAlign="2"/><v:tabList/>-&#62; Contient des -&#62;</text>		</g>
		<g id="shape49-160" v:mID="49" v:groupContext="shape" transform="translate(237.858,-141.417)">
			<title>Feuille.49</title>
			<desc>&#60;- Fait partie d’un &#60;-</desc>
			<v:textBlock v:margins="rect(4,4,4,4)" v:tabSpace="42.5197"/>
			<v:textRect cx="41.1024" cy="585.276" width="82.21" height="20"/>
			<rect x="0" y="575.276" width="82.2047" height="20" class="st9"/>
			<text x="8.08" y="588.88" class="st13" v:langID="4108"><v:paragraph v:horizAlign="1"/><v:tabList/>&#60;- Fait partie d’un &#60;-</text>		</g>
		<g id="shape50-163" v:mID="50" v:groupContext="shape" transform="translate(93.5433,-358.504)">
			<title>Feuille.50</title>
			<desc>-&#62; Contient une image de groupe référencée par -&#62;</desc>
			<v:textBlock v:margins="rect(4,4,4,4)" v:tabSpace="42.5197"/>
			<v:textRect cx="45.3543" cy="585.276" width="90.71" height="20"/>
			<rect x="0" y="575.276" width="90.7087" height="20" class="st9"/>
			<text x="4.6" y="580.48" class="st13" v:langID="4108"><v:paragraph v:horizAlign="2"/><v:tabList/>-&#62; Contient une image de <tspan
						x="5.36" dy="1.65em" class="st12">groupe référencée par </tspan>-&#62;</text>		</g>
		<g id="shape52-167" v:mID="52" v:groupContext="shape" transform="translate(228.189,-436.535)">
			<title>Feuille.52</title>
			<desc>&#60;- Référiencie l’image du &#60;-</desc>
			<v:textBlock v:margins="rect(4,4,4,4)" v:tabSpace="42.5197"/>
			<v:textRect cx="51.7323" cy="585.276" width="103.47" height="20"/>
			<rect x="0" y="575.276" width="103.465" height="20" class="st9"/>
			<text x="7.28" y="588.88" class="st13" v:langID="4108"><v:paragraph v:horizAlign="1"/><v:tabList/>&#60;- Référiencie l’image du &#60;-</text>		</g>
		<g id="shape53-170" v:mID="53" v:groupContext="shape" transform="translate(464.63,-436.378)">
			<title>Feuille.53</title>
			<desc>-&#62; Référencie l’image du -&#62;</desc>
			<v:textBlock v:margins="rect(4,4,4,4)" v:tabSpace="42.5197"/>
			<v:textRect cx="51.7323" cy="585.276" width="103.47" height="20"/>
			<rect x="0" y="575.276" width="103.465" height="20" class="st9"/>
			<text x="8.2" y="588.88" class="st13" v:langID="4108"><v:paragraph v:horizAlign="1"/><v:tabList/>-&#62; Référencie l’image du -&#62;</text>		</g>
		<g id="shape54-173" v:mID="54" v:groupContext="shape" transform="translate(484.724,-351.496)">
			<title>Feuille.54</title>
			<desc>&#60;- Contient une image d’utilisateur référencée par &#60;-</desc>
			<v:textBlock v:margins="rect(4,4,4,4)" v:tabSpace="42.5197"/>
			<v:textRect cx="56.6929" cy="582.441" width="113.39" height="25.6693"/>
			<rect x="0" y="569.606" width="113.386" height="25.6693" class="st9"/>
			<text x="37.27" y="577.64" class="st13" v:langID="4108"><v:paragraph v:horizAlign="2"/><v:tabList/>&#60;- Contient une image <tspan
						x="11.99" dy="1.65em" class="st12">d</tspan>’utilisateur référencée par &#60;-</text>		</g>
		<g id="shape55-177" v:mID="55" v:groupContext="shape" transform="translate(467.717,-141.732)">
			<title>Feuille.55</title>
			<desc>-&#62; Appartient à un -&#62;</desc>
			<v:textBlock v:margins="rect(4,4,4,4)" v:tabSpace="42.5197"/>
			<v:textRect cx="41.1024" cy="585.276" width="82.21" height="20"/>
			<rect x="0" y="575.276" width="82.2047" height="20" class="st9"/>
			<text x="6.51" y="588.88" class="st13" v:langID="4108"><v:paragraph v:horizAlign="1"/><v:tabList/>-&#62; Appartient à un  -&#62;</text>		</g>
		<g id="shape56-180" v:mID="56" v:groupContext="shape" transform="translate(541.417,-215.433)">
			<title>Feuille.56</title>
			<desc>&#60;- A créé un &#60;-</desc>
			<v:textBlock v:margins="rect(4,4,4,4)" v:tabSpace="42.5197"/>
			<v:textRect cx="28.3465" cy="582.441" width="56.7" height="25.6693"/>
			<rect x="0" y="569.606" width="56.6929" height="25.6693" class="st9"/>
			<text x="5.42" y="586.04" class="st13" v:langID="4108"><v:paragraph v:horizAlign="2"/><v:tabList/>&#60;- A créé un &#60;-</text>		</g>
		<g id="shape57-183" v:mID="57" v:groupContext="shape" transform="translate(291.969,-226.772)">
			<title>Feuille.57</title>
			<desc>&#60;- Peut contenir un fichier référencé par &#60;-</desc>
			<v:textBlock v:margins="rect(4,4,4,4)" v:tabSpace="42.5197"/>
			<v:textRect cx="45.3543" cy="582.441" width="90.71" height="25.6693"/>
			<rect x="0" y="569.606" width="90.7087" height="25.6693" class="st9"/>
			<text x="24.15" y="577.64" class="st13" v:langID="4108"><v:paragraph v:horizAlign="2"/><v:tabList/>&#60;- Peut contenir un <tspan
						x="12.03" dy="1.65em" class="st12">fichier référencé par </tspan>&#60;-</text>		</g>
		<g id="shape58-187" v:mID="58" v:groupContext="shape" transform="translate(302.772,-357.165)">
			<title>Feuille.58</title>
			<desc>-&#62; Référence un fichier contenu dans un -&#62;</desc>
			<v:textBlock v:margins="rect(4,4,4,4)" v:tabSpace="42.5197"/>
			<v:textRect cx="41.1024" cy="585.276" width="82.21" height="20"/>
			<rect x="0" y="575.276" width="82.2047" height="20" class="st9"/>
			<text x="4.39" y="580.48" class="st13" v:langID="4108"><v:paragraph v:horizAlign="2"/><v:tabList/>-&#62; Référence un fichier <tspan
						x="15.7" dy="1.65em" class="st12">contenu dans un </tspan>-&#62;</text>		</g>
	</g>
</svg>
